<svg xmlns="http://www.w3.org/2000/svg" version="1.1" xmlns:xlink="http://www.w3.org/1999/xlink" xmlns:svgjs="http://svgjs.com/svgjs" width="1920" height="1080" preserveAspectRatio="none" viewBox="0 0 1920 1080"><g mask="url(&quot;#SvgjsMask1117&quot;)" fill="none"><path d="M1230 132L1229 630" stroke-width="6" stroke="url(#SvgjsLinearGradient1118)" stroke-linecap="round" class="Up"></path><path d="M1763 910L1762 1205" stroke-width="10" stroke="url(#SvgjsLinearGradient1118)" stroke-linecap="round" class="Up"></path><path d="M967 977L966 1349" stroke-width="8" stroke="url(#SvgjsLinearGradient1119)" stroke-linecap="round" class="Down"></path><path d="M1363 512L1362 1041" stroke-width="10" stroke="url(#SvgjsLinearGradient1119)" stroke-linecap="round" class="Down"></path><path d="M126 191L125 885" stroke-width="6" stroke="url(#SvgjsLinearGradient1118)" stroke-linecap="round" class="Up"></path><path d="M1599 504L1598 1183" stroke-width="8" stroke="url(#SvgjsLinearGradient1118)" stroke-linecap="round" class="Up"></path><path d="M622 1015L621 1300" stroke-width="6" stroke="url(#SvgjsLinearGradient1119)" stroke-linecap="round" class="Down"></path><path d="M633 542L632 1287" stroke-width="8" stroke="url(#SvgjsLinearGradient1119)" stroke-linecap="round" class="Down"></path><path d="M913 128L912 -258" stroke-width="8" stroke="url(#SvgjsLinearGradient1118)" stroke-linecap="round" class="Up"></path><path d="M303 707L302 58" stroke-width="8" stroke="url(#SvgjsLinearGradient1119)" stroke-linecap="round" class="Down"></path><path d="M888 69L887 813" stroke-width="8" stroke="url(#SvgjsLinearGradient1118)" stroke-linecap="round" class="Up"></path><path d="M1110 965L1109 1325" stroke-width="10" stroke="url(#SvgjsLinearGradient1119)" stroke-linecap="round" class="Down"></path><path d="M246 545L245 80" stroke-width="6" stroke="url(#SvgjsLinearGradient1118)" stroke-linecap="round" class="Up"></path><path d="M1094 130L1093 -570" stroke-width="8" stroke="url(#SvgjsLinearGradient1119)" stroke-linecap="round" class="Down"></path><path d="M1016 94L1015 599" stroke-width="8" stroke="url(#SvgjsLinearGradient1119)" stroke-linecap="round" class="Down"></path><path d="M1403 1029L1402 1657" stroke-width="6" stroke="url(#SvgjsLinearGradient1119)" stroke-linecap="round" class="Down"></path><path d="M1682 739L1681 1272" stroke-width="6" stroke="url(#SvgjsLinearGradient1119)" stroke-linecap="round" class="Down"></path><path d="M107 690L106 323" stroke-width="10" stroke="url(#SvgjsLinearGradient1119)" stroke-linecap="round" class="Down"></path><path d="M1118 7L1117 -396" stroke-width="8" stroke="url(#SvgjsLinearGradient1118)" stroke-linecap="round" class="Up"></path><path d="M1826 378L1825 1095" stroke-width="6" stroke="url(#SvgjsLinearGradient1119)" stroke-linecap="round" class="Down"></path><path d="M1812 944L1811 1573" stroke-width="6" stroke="url(#SvgjsLinearGradient1118)" stroke-linecap="round" class="Up"></path><path d="M1080 454L1079 1199" stroke-width="6" stroke="url(#SvgjsLinearGradient1119)" stroke-linecap="round" class="Down"></path><path d="M81 279L80 694" stroke-width="8" stroke="url(#SvgjsLinearGradient1118)" stroke-linecap="round" class="Up"></path><path d="M1206 636L1205 333" stroke-width="6" stroke="url(#SvgjsLinearGradient1118)" stroke-linecap="round" class="Up"></path><path d="M1751 95L1750 606" stroke-width="10" stroke="url(#SvgjsLinearGradient1118)" stroke-linecap="round" class="Up"></path><path d="M222 888L221 1181" stroke-width="8" stroke="url(#SvgjsLinearGradient1119)" stroke-linecap="round" class="Down"></path><path d="M1044 137L1043 -325" stroke-width="6" stroke="url(#SvgjsLinearGradient1119)" stroke-linecap="round" class="Down"></path><path d="M382 469L381 893" stroke-width="6" stroke="url(#SvgjsLinearGradient1119)" stroke-linecap="round" class="Down"></path><path d="M1549 355L1548 -39" stroke-width="10" stroke="url(#SvgjsLinearGradient1119)" stroke-linecap="round" class="Down"></path><path d="M401 971L400 1719" stroke-width="6" stroke="url(#SvgjsLinearGradient1118)" stroke-linecap="round" class="Up"></path><path d="M834 452L833 1171" stroke-width="8" stroke="url(#SvgjsLinearGradient1119)" stroke-linecap="round" class="Down"></path><path d="M719 926L718 1268" stroke-width="6" stroke="url(#SvgjsLinearGradient1118)" stroke-linecap="round" class="Up"></path><path d="M1142 742L1141 1353" stroke-width="8" stroke="url(#SvgjsLinearGradient1119)" stroke-linecap="round" class="Down"></path><path d="M143 190L142 691" stroke-width="6" stroke="url(#SvgjsLinearGradient1119)" stroke-linecap="round" class="Down"></path><path d="M1347 949L1346 1730" stroke-width="10" stroke="url(#SvgjsLinearGradient1118)" stroke-linecap="round" class="Up"></path><path d="M233 444L232 -243" stroke-width="8" stroke="url(#SvgjsLinearGradient1119)" stroke-linecap="round" class="Down"></path><path d="M577 393L576 30" stroke-width="6" stroke="url(#SvgjsLinearGradient1118)" stroke-linecap="round" class="Up"></path><path d="M1602 760L1601 416" stroke-width="6" stroke="url(#SvgjsLinearGradient1118)" stroke-linecap="round" class="Up"></path><path d="M1539 21L1538 329" stroke-width="8" stroke="url(#SvgjsLinearGradient1118)" stroke-linecap="round" class="Up"></path><path d="M1354 907L1353 352" stroke-width="10" stroke="url(#SvgjsLinearGradient1119)" stroke-linecap="round" class="Down"></path><path d="M1869 948L1868 1677" stroke-width="6" stroke="url(#SvgjsLinearGradient1119)" stroke-linecap="round" class="Down"></path><path d="M1111 616L1110 966" stroke-width="6" stroke="url(#SvgjsLinearGradient1119)" stroke-linecap="round" class="Down"></path><path d="M661 1076L660 1372" stroke-width="10" stroke="url(#SvgjsLinearGradient1118)" stroke-linecap="round" class="Up"></path><path d="M1805 562L1804 1025" stroke-width="6" stroke="url(#SvgjsLinearGradient1119)" stroke-linecap="round" class="Down"></path><path d="M475 95L474 540" stroke-width="10" stroke="url(#SvgjsLinearGradient1119)" stroke-linecap="round" class="Down"></path><path d="M1852 52L1851 707" stroke-width="6" stroke="url(#SvgjsLinearGradient1119)" stroke-linecap="round" class="Down"></path><path d="M30 849L29 1265" stroke-width="8" stroke="url(#SvgjsLinearGradient1118)" stroke-linecap="round" class="Up"></path><path d="M1421 335L1420 -77" stroke-width="6" stroke="url(#SvgjsLinearGradient1119)" stroke-linecap="round" class="Down"></path></g><defs><mask id="SvgjsMask1117"><rect width="1920" height="1080" fill="#ffffff"></rect></mask><linearGradient x1="0%" y1="100%" x2="0%" y2="0%" id="SvgjsLinearGradient1118"><stop stop-color="rgba(82, 0, 255, 0)" offset="0"></stop><stop stop-color="rgba(82, 0, 255, 1)" offset="1"></stop></linearGradient><linearGradient x1="0%" y1="0%" x2="0%" y2="100%" id="SvgjsLinearGradient1119"><stop stop-color="rgba(82, 0, 255, 0)" offset="0"></stop><stop stop-color="rgba(82, 0, 255, 1)" offset="1"></stop></linearGradient></defs></svg>